<svg width="412" height="593" viewBox="0 0 412 593" fill="none" xmlns="http://www.w3.org/2000/svg">
<path d="M-19.388 83.9508C-19.388 130.457 -1.40292 208.876 -69.3175 293.648C-135.653 376.45 -44.3931 114.254 47.2608 98.0256C154.398 79.0554 -30.2418 518.301 -39.7623 428.909C-45.0887 378.898 109.884 116.399 153.475 159.991C208.929 215.445 63.5187 532.191 29.5649 526.981C-30.3341 517.791 183.897 153.446 244.684 184.826C317.168 222.244 197.694 471.949 142.255 485.343C97.9045 496.057 263.32 254.065 374.012 309.449" stroke="black" stroke-width="8" stroke-linecap="round"/>
<path d="M381.507 289.989C382.588 288.054 385.546 289.052 385.233 291.246L384.657 295.288C384.469 296.605 385.594 297.734 386.912 297.552L402.626 295.372C404.746 295.078 405.784 297.871 403.987 299.033L392.309 306.583C390.955 307.459 391.141 309.496 392.632 310.111L400.582 313.393C402.409 314.148 402.151 316.813 400.212 317.203L395.01 318.248C393.834 318.484 393.129 319.694 393.503 320.833L394.98 325.327C395.544 327.044 393.721 328.569 392.131 327.711L385.787 324.291C384.159 323.413 382.314 325.026 382.966 326.756L386.455 336.022C387.212 338.032 384.7 339.66 383.175 338.147L373.312 328.364C372.676 327.733 371.698 327.602 370.918 328.043L359.799 334.334C357.946 335.382 355.956 333.195 357.174 331.449L363.723 322.062C364.322 321.204 364.157 320.028 363.345 319.367L351.928 310.073C350.468 308.885 351.308 306.522 353.19 306.522H361.986C362.981 306.522 363.824 305.791 363.966 304.807L365.345 295.245C365.643 293.176 368.514 292.894 369.21 294.864L371.444 301.188C372.018 302.811 374.237 303 375.076 301.497L381.507 289.989Z" fill="#CD4631"/>
</svg>
